<?xml version="1.0" encoding="UTF-8"?>
<svg version="1.1" xmlns="http://www.w3.org/2000/svg" width="612" height="408">
<path d="M0 0 C0.99 0 1.98 0 3 0 C4.79203512 8.98271694 6.43708547 17.83808082 7 27 C4.23723823 26.47731534 1.6739124 25.89130413 -1 25 C-1.28875 25.9075 -1.5775 26.815 -1.875 27.75 C-2.76531776 30.32202908 -3.71494413 32.61346766 -5 35 C-4.34 35 -3.68 35 -3 35 C-2.02032603 42.94105492 -1.78489914 50.81623358 -1.75 58.8125 C-1.729375 60.01326172 -1.70875 61.21402344 -1.6875 62.45117188 C-1.67976563 64.18657227 -1.67976563 64.18657227 -1.671875 65.95703125 C-1.6625293 66.99835205 -1.65318359 68.03967285 -1.64355469 69.11254883 C-2.13471981 73.09132277 -3.59798568 75.69728291 -6.53051758 78.42211914 C-7.06314209 78.78942139 -7.5957666 79.15672363 -8.14453125 79.53515625 C-8.73943359 79.95216797 -9.33433594 80.36917969 -9.94726562 80.79882812 C-10.56279297 81.21583984 -11.17832031 81.63285156 -11.8125 82.0625 C-12.41642578 82.48337891 -13.02035156 82.90425781 -13.64257812 83.33789062 C-14.84101245 84.16995752 -16.04425127 84.99515166 -17.25244141 85.81298828 C-18.93675923 86.95704434 -20.59976358 88.13228775 -22.26171875 89.30859375 C-25 91 -25 91 -28 91 C-28.19622046 86.87536584 -28.38050216 82.75028427 -28.5625 78.625 C-28.64661133 76.8615625 -28.64661133 76.8615625 -28.73242188 75.0625 C-28.78076172 73.94101563 -28.82910156 72.81953125 -28.87890625 71.6640625 C-28.94960327 70.10872803 -28.94960327 70.10872803 -29.02172852 68.52197266 C-29 66 -29 66 -28 64 C-30.31 65.65 -32.62 67.3 -35 69 C-33.68 68.67 -32.36 68.34 -31 68 C-30.10250178 71.0682638 -29.88288232 73.79269976 -29.90234375 76.984375 C-29.90717773 78.38623047 -29.90717773 78.38623047 -29.91210938 79.81640625 C-29.92467773 81.26853516 -29.92467773 81.26853516 -29.9375 82.75 C-29.94201172 83.73355469 -29.94652344 84.71710938 -29.95117188 85.73046875 C-29.96293517 88.15370791 -29.97937316 90.57682273 -30 93 C-32.34890274 94.15782465 -34.70320082 95.30121171 -37.0625 96.4375 C-37.71927734 96.76298828 -38.37605469 97.08847656 -39.05273438 97.42382812 C-43.42343838 99.5122926 -47.17199436 100.55424135 -52 101 C-52.33 100.34 -52.66 99.68 -53 99 C-53.15726563 99.61101562 -53.31453125 100.22203125 -53.4765625 100.8515625 C-55.92469748 104.30406054 -59.38129999 104.51920714 -63.375 105.375 C-64.14328125 105.56449219 -64.9115625 105.75398438 -65.703125 105.94921875 C-71.35164203 107.22941898 -71.35164203 107.22941898 -74.5390625 106.1015625 C-75.02117187 105.73804688 -75.50328125 105.37453125 -76 105 C-76.02696365 103.20841511 -76.04637917 101.41671527 -76.0625 99.625 C-76.07410156 98.62726563 -76.08570313 97.62953125 -76.09765625 96.6015625 C-76 94 -76 94 -75 92 C-75.60585937 92.12117188 -76.21171875 92.24234375 -76.8359375 92.3671875 C-82.890625 93.578125 -88.9453125 94.7890625 -95 96 C-93.68 96.66 -92.36 97.32 -91 98 C-90.70703125 104.0546875 -90.70703125 104.0546875 -91 106 C-94 108 -94 108 -96.6640625 107.79296875 C-97.64117187 107.59316406 -98.61828125 107.39335937 -99.625 107.1875 C-100.60726562 106.99542969 -101.58953125 106.80335938 -102.6015625 106.60546875 C-105 106 -105 106 -106 105 C-106.14115161 102.32941149 -106.04247107 99.67567762 -106 97 C-107.98 96.67 -109.96 96.34 -112 96 C-111.67 95.01 -111.34 94.02 -111 93 C-109.35 93 -107.7 93 -106 93 C-106 86.4 -106 79.8 -106 73 C-106.66 72.67 -107.32 72.34 -108 72 C-108.33 72.99 -108.66 73.98 -109 75 C-109.99 74.67 -110.98 74.34 -112 74 C-112.8125 72.125 -112.8125 72.125 -113 70 C-111 67 -111 67 -108.875 66.3125 C-108.25625 66.209375 -107.6375 66.10625 -107 66 C-106.67 63.69 -106.34 61.38 -106 59 C-106.495 59.495 -106.495 59.495 -107 60 C-108.9375 60.6875 -108.9375 60.6875 -111 61 C-111.66 60.34 -112.32 59.68 -113 59 C-113 57 -113 57 -112 55 C-108.9375 53.75 -108.9375 53.75 -106 53 C-106 50.69 -106 48.38 -106 46 C-106.495 46.495 -106.495 46.495 -107 47 C-108.9375 47.6875 -108.9375 47.6875 -111 48 C-111.66 47.34 -112.32 46.68 -113 46 C-112.9375 44 -112.9375 44 -112 42 C-109.4375 40.75 -109.4375 40.75 -107 40 C-107.061875 38.9275 -107.12375 37.855 -107.1875 36.75 C-107 33 -107 33 -106.09375 30.80078125 C-102.61215969 27.80635376 -98.75209882 28.36863024 -94.3125 28.4375 C-93.35384033 28.44483154 -92.39518066 28.45216309 -91.4074707 28.4597168 C-83.6809253 28.66240687 -76.25213907 29.76579689 -68.6875 31.3125 C-67.63796143 31.52511475 -66.58842285 31.73772949 -65.50708008 31.95678711 C-59.98766026 33.19225867 -59.98766026 33.19225867 -58 34 C-57.67 34.99 -57.34 35.98 -57 37 C-57.79172607 36.98952637 -58.58345215 36.97905273 -59.39916992 36.96826172 C-62.99524751 36.92662154 -66.59127428 36.90064807 -70.1875 36.875 C-71.43337891 36.85824219 -72.67925781 36.84148437 -73.96289062 36.82421875 C-75.16494141 36.81777344 -76.36699219 36.81132812 -77.60546875 36.8046875 C-78.71043701 36.79421387 -79.81540527 36.78374023 -80.95385742 36.77294922 C-84.0697547 37.00519932 -86.229849 37.5747434 -89 39 C-90.66011047 42.32022094 -90.24392351 46.04452927 -90.31640625 49.69921875 C-90.33718735 50.56762894 -90.35796844 51.43603912 -90.37937927 52.33076477 C-90.44485258 55.1162613 -90.50365007 57.90185648 -90.5625 60.6875 C-90.60570379 62.54623367 -90.64931867 64.40495784 -90.69335938 66.26367188 C-90.94461695 77.13069925 -90.94461695 77.13069925 -91 88 C-89.7610821 86.9856737 -89.7610821 86.9856737 -89.90234375 84.8828125 C-89.91394531 83.97273438 -89.92554687 83.06265625 -89.9375 82.125 C-89.94523437 81.14015625 -89.95296875 80.1553125 -89.9609375 79.140625 C-89.97382812 78.10421875 -89.98671875 77.0678125 -90 76 C-90.02539322 73.95838496 -90.04646563 71.91671 -90.0625 69.875 C-90.07410156 68.96492188 -90.08570312 68.05484375 -90.09765625 67.1171875 C-90 65 -90 65 -89 64 C-85.3308423 63.85689713 -81.67284559 63.95778338 -78 64 C-77.67 70.6 -77.34 77.2 -77 84 C-76.01 83.67 -75.02 83.34 -74 83 C-74.99 82.01 -74.99 82.01 -76 81 C-76.21214788 78.15476692 -76.30396637 75.40932768 -76.30078125 72.5625 C-76.30506638 71.72662354 -76.3093515 70.89074707 -76.31376648 70.02954102 C-76.31951373 68.26091417 -76.32000713 66.49226369 -76.31567383 64.72363281 C-76.31251242 62.0106599 -76.3359722 59.29877558 -76.36132812 56.5859375 C-76.36360086 54.86979305 -76.36430473 53.15364565 -76.36328125 51.4375 C-76.372491 50.62289307 -76.38170074 49.80828613 -76.39118958 48.96899414 C-76.37231445 46.68359375 -76.37231445 46.68359375 -76 43 C-72.77551853 40.85034569 -72.20069035 40.77847716 -68.55078125 41.0234375 C-67.70322266 41.075 -66.85566406 41.1265625 -65.98242188 41.1796875 C-65.10134766 41.24414062 -64.22027344 41.30859375 -63.3125 41.375 C-61.97348633 41.46007812 -61.97348633 41.46007812 -60.60742188 41.546875 C-58.40430639 41.68825139 -56.20204745 41.84286257 -54 42 C-53.505 48.435 -53.505 48.435 -53 55 C-52.67 42.46 -52.34 29.92 -52 17 C-46.8334375 16.9690625 -46.8334375 16.9690625 -41.5625 16.9375 C-40.47525635 16.928396 -39.3880127 16.91929199 -38.26782227 16.90991211 C-36.99249634 16.90616577 -36.99249634 16.90616577 -35.69140625 16.90234375 C-34.37958374 16.89448853 -34.37958374 16.89448853 -33.04125977 16.88647461 C-31 17 -31 17 -30 18 C-29.91224395 20.14558827 -29.89304781 22.29404421 -29.90234375 24.44140625 C-29.90717773 26.39916992 -29.90717773 26.39916992 -29.91210938 28.39648438 C-29.92046599 29.7851569 -29.92893095 31.17382877 -29.9375 32.5625 C-29.94251334 33.95507656 -29.94707653 35.34765481 -29.95117188 36.74023438 C-29.96300566 40.1601987 -29.9794912 43.58007844 -30 47 C-29.34 47 -28.68 47 -28 47 C-27.67 45.35 -27.34 43.7 -27 42 C-27.66 42 -28.32 42 -29 42 C-28.67 40.68 -28.34 39.36 -28 38 C-26.02 38.495 -26.02 38.495 -24 39 C-22.705826 36.43873936 -21.41459216 33.87606642 -20.125 31.3125 C-19.76019531 30.59126953 -19.39539063 29.87003906 -19.01953125 29.12695312 C-17.1820758 25.46874636 -15.43861498 21.8388305 -14 18 C-15.175625 18.0928125 -15.175625 18.0928125 -16.375 18.1875 C-17.24125 18.125625 -18.1075 18.06375 -19 18 C-19.99 16.515 -19.99 16.515 -21 15 C-15.32754399 10.59550475 -9.44256622 6.57990897 -3.44140625 2.63671875 C-1.15061824 1.21514672 -1.15061824 1.21514672 0 0 Z M-7 36 C-6 38 -6 38 -6 38 Z M-8 38 C-9.59380824 40.0230259 -11.14799453 42.06125916 -12.6875 44.125 C-15.49445524 47.84866598 -18.24620642 51.45455362 -21.625 54.6875 C-22.40875 55.450625 -23.1925 56.21375 -24 57 C-24 57.66 -24 58.32 -24 59 C-20.92302702 57.65721545 -19.11543412 56.27603838 -17.01953125 53.6640625 C-16.49552734 53.01179688 -15.97152344 52.35953125 -15.43164062 51.6875 C-14.89732422 51.006875 -14.36300781 50.32625 -13.8125 49.625 C-13.26658203 48.95210937 -12.72066406 48.27921875 -12.15820312 47.5859375 C-9.62608407 44.3980404 -7.77574838 42.06610723 -7 38 C-7.33 38 -7.66 38 -8 38 Z M-100 41 C-99.67 41.99 -99.34 42.98 -99 44 C-99 43.01 -99 42.02 -99 41 C-99.33 41 -99.66 41 -100 41 Z M-100 54 C-99 58 -99 58 -99 58 Z M-53 66 C-53.33 67.65 -53.66 69.3 -54 71 C-52.68 70.34 -51.36 69.68 -50 69 C-50 68.34 -50 67.68 -50 67 C-50.99 66.67 -51.98 66.34 -53 66 Z M-101 67 C-100.34 68.32 -99.68 69.64 -99 71 C-98.67 70.01 -98.34 69.02 -98 68 C-98.99 67.67 -99.98 67.34 -101 67 Z M-39 71 C-41.64 72.98 -44.28 74.96 -47 77 C-46.01 77.495 -46.01 77.495 -45 78 C-42.36 76.02 -39.72 74.04 -37 72 C-37.66 71.67 -38.32 71.34 -39 71 Z M-55.640625 81.6796875 C-56.38183594 82.03160156 -57.12304688 82.38351563 -57.88671875 82.74609375 C-59.05654297 83.30490234 -59.05654297 83.30490234 -60.25 83.875 C-69.50598335 88.29227367 -69.50598335 88.29227367 -74 90 C-70.3817495 91.318017 -68.42284315 90.67521057 -64.9375 89.1875 C-64.08027344 88.83042969 -63.22304687 88.47335938 -62.33984375 88.10546875 C-59.81553206 86.98254428 -59.81553206 86.98254428 -57 85 C-55.68 85 -54.36 85 -53 85 C-52.34 83.35 -51.68 81.7 -51 80 C-52.71232189 80 -54.11361141 80.95043829 -55.640625 81.6796875 Z " fill="#F9F9F9" transform="translate(217,117)"/>
<path d="M0 0 C4.24360303 0.4896465 7.14526726 3.00750536 10 6 C15.15402713 13.26766602 15.76434654 20.29075561 15 29 C13.18286122 36.15433498 9.3036073 42.09285683 5 48 C4.401875 48.86625 3.80375 49.7325 3.1875 50.625 C-0.14494746 54.24308581 -4.05744373 57.07677986 -8 60 C-7.67 60.66 -7.34 61.32 -7 62 C-6.14530328 67.60301182 -5.87359458 73.14855214 -5.8125 78.8125 C-5.79832031 80.07707031 -5.78414063 81.34164062 -5.76953125 82.64453125 C-6.10725792 87.56160254 -6.10725792 87.56160254 -8 90 C-12.38519841 92.32984587 -16.6731702 92.28354842 -21.51879883 92.25878906 C-22.36499283 92.2622937 -23.21118683 92.26579834 -24.08302307 92.26940918 C-26.87444314 92.27819578 -29.66560869 92.27238659 -32.45703125 92.265625 C-34.40370228 92.26697291 -36.35037297 92.26891449 -38.29704285 92.27142334 C-42.37652797 92.27437076 -46.45592546 92.2700906 -50.53540039 92.26074219 C-55.7505663 92.24937066 -60.96552582 92.25589498 -66.18068409 92.26788712 C-70.20169105 92.27513542 -74.2226496 92.27280376 -78.24365807 92.26763153 C-80.16568718 92.26630207 -82.08772075 92.26791799 -84.00974464 92.27259064 C-86.70428621 92.27770223 -89.39850023 92.26987991 -92.09301758 92.25878906 C-92.87926514 92.26283752 -93.6655127 92.26688599 -94.47558594 92.27105713 C-99.62043159 92.23206969 -104.09394954 91.61044783 -109 90 C-109.66 89.01 -110.32 88.02 -111 87 C-110 86 -110 86 -107.27734375 85.90234375 C-106.17519531 85.91394531 -105.07304688 85.92554688 -103.9375 85.9375 C-102.83277344 85.94652344 -101.72804688 85.95554687 -100.58984375 85.96484375 C-99.73519531 85.97644531 -98.88054687 85.98804688 -98 86 C-99.18142578 85.97873047 -99.18142578 85.97873047 -100.38671875 85.95703125 C-111.47698177 85.4714221 -121.92189426 83.22561223 -129.73046875 74.84375 C-133.56670377 69.27235637 -133.8207981 63.54873321 -133 57 C-130.46207973 48.47155728 -124.41875884 42.85789642 -118 37 C-117.01 37.33 -116.02 37.66 -115 38 C-118 43 -118 43 -119.625 45.3125 C-121.43991475 48.85983337 -122.12529147 52.01416511 -122 56 C-120.04360072 61.65182013 -117.09067141 64.30568108 -111.93359375 67.1328125 C-93.05954183 75.58035374 -65.58057549 69.00929113 -47 62 C-31.55740297 55.68873253 -17.9693546 47.75561612 -6 36 C-5.401875 35.41476563 -4.80375 34.82953125 -4.1875 34.2265625 C1.20329039 28.48537074 4.14435407 21.63348486 4.5 13.75 C4.32804506 9.1860294 2.82260461 6.61646216 0 3 C0 2.01 0 1.02 0 0 Z M-11 61 C-11.33 61.66 -11.66 62.32 -12 63 C-11.01 62.67 -10.02 62.34 -9 62 C-9.66 61.67 -10.32 61.34 -11 61 Z M-21.80078125 67.49023438 C-32.10679964 72.98344224 -42.86446168 76.56968248 -54 80 C-54 80.33 -54 80.66 -54 81 C-48.26033784 80.44724418 -43.22753485 79.33379054 -37.8125 77.375 C-37.08289063 77.11428711 -36.35328125 76.85357422 -35.6015625 76.58496094 C-23.76841403 72.64873744 -23.76841403 72.64873744 -15 65 C-17.70002825 65 -19.46683733 66.24167327 -21.80078125 67.49023438 Z M-58 81 C-54 82 -54 82 -54 82 Z M-62 82 C-58 83 -58 83 -58 83 Z M-75 84 C-75 84.33 -75 84.66 -75 85 C-73.5629191 85.05422947 -72.12524538 85.09289723 -70.6875 85.125 C-69.48673828 85.15980469 -69.48673828 85.15980469 -68.26171875 85.1953125 C-65.71611424 85.15817322 -65.71611424 85.15817322 -63 83 C-67.0934693 82.87595548 -70.95858806 83.36605303 -75 84 Z " fill="#F8F7F8" transform="translate(221,155)"/>
<path d="M0 0 C2.72869407 0.03287583 5.2966618 0.56397771 8 1 C8.19208189 6.51722958 8.37083263 12.03466668 8.53710938 17.55273438 C8.5955953 19.43078256 8.65775641 21.30871997 8.72363281 23.18652344 C8.81756025 25.88195632 8.89836718 28.57750816 8.9765625 31.2734375 C9.00875885 32.11619232 9.0409552 32.95894714 9.0741272 33.82723999 C9.12728029 35.88428841 9.073058 37.94356231 9 40 C7 42 7 42 3.0625 42.1875 C0.32363845 42.16190316 -1.34007532 41.88664156 -4 41 C-4.99 41.33 -5.98 41.66 -7 42 C-13.41266707 42.53438892 -16.84810853 41.96299344 -22 38 C-23.32 35.36 -24.64 32.72 -26 30 C-33.26 30 -40.52 30 -48 30 C-48 30.66 -48 31.32 -48 32 C-41.52090567 32.24266274 -41.52090567 32.24266274 -35.1875 31.1875 C-34.465625 31.125625 -33.74375 31.06375 -33 31 C-30.1875 33.4375 -30.1875 33.4375 -28 36 C-29.5675784 38.61263067 -30.75288403 39.87644202 -33.5 41.25 C-39.62591813 42.56269674 -46.19279577 43.34639874 -51.9375 40.375 C-56.37702866 36.93210022 -58.91766005 33.61257635 -59.9375 28.0625 C-60.37692665 22.44641301 -58.20737894 18.50922368 -54.75 14.1875 C-50.2607864 10.61653464 -46.06929953 9.74639163 -40.4375 10.125 C-36.10235956 10.78116922 -33.30440433 12.00298212 -30 15 C-28.41970953 17.57474116 -27.15143107 20.20947292 -26 23 C-25.62875 21.948125 -25.2575 20.89625 -24.875 19.8125 C-23.06020289 15.67039363 -20.87722397 13.44121509 -17 11 C-11.24136329 9.39513403 -6.54422648 9.99464149 -1 12 C-1.495 10.515 -1.495 10.515 -2 9 C-2.1875 5.4375 -2.1875 5.4375 -2 2 C-1.34 1.34 -0.68 0.68 0 0 Z M-47 19 C-47.33 20.32 -47.66 21.64 -48 23 C-44.37 23 -40.74 23 -37 23 C-37.66 21.68 -38.32 20.36 -39 19 C-41.64 19 -44.28 19 -47 19 Z M-15 23 C-15.61195145 26.6717087 -15.48706506 28.28813568 -13.375 31.375 C-10.32214079 33.46379841 -8.63031776 33.54068562 -5 33 C-2.96117905 32.12870693 -2.96117905 32.12870693 -2 30 C-1.53476491 27.24305131 -1.48398052 24.75210391 -2 22 C-4.07255443 19.54363919 -5.36369034 19.11135419 -8.5 18.5625 C-11.89834723 19.15721076 -13.01241034 20.20265158 -15 23 Z " fill="#F6F6F6" transform="translate(430,172)"/>
<path d="M0 0 C1.46663086 -0.0309375 1.46663086 -0.0309375 2.96289062 -0.0625 C9.1807597 -0.09581745 13.79751869 0.5784299 19.4375 3.25 C21.78506139 5.66869962 22.42980238 7.13961896 22.453125 10.50390625 C21.93126095 16.75623905 21.93126095 16.75623905 19.4375 19.25 C20.076875 19.765625 20.71625 20.28125 21.375 20.8125 C24.09143211 24.02282886 24.36546892 26.0721972 24.4375 30.25 C23.22010718 33.76691258 22.21691897 35.66519833 19.23364258 37.90356445 C15.8633865 39.52645472 13.5538662 39.59405981 9.82421875 39.54296875 C8.57705078 39.53330078 7.32988281 39.52363281 6.04492188 39.51367188 C4.75134766 39.48853516 3.45777344 39.46339844 2.125 39.4375 C0.15563477 39.41719727 0.15563477 39.41719727 -1.85351562 39.39648438 C-5.09026077 39.36117443 -8.32617105 39.3118528 -11.5625 39.25 C-11.58714849 33.85653012 -11.60533531 28.46309275 -11.61743164 23.06958008 C-11.62247231 21.23331125 -11.62930477 19.39704646 -11.63793945 17.56079102 C-11.65001672 14.92723599 -11.65573081 12.29373384 -11.66015625 9.66015625 C-11.66531754 8.83411392 -11.67047882 8.00807159 -11.67579651 7.15699768 C-11.67599205 5.18763632 -11.62454152 3.21838386 -11.5625 1.25 C-9.17651976 -1.13598024 -3.1997638 0.01641957 0 0 Z M-1.5625 9.25 C-1.72916667 12.25 -1.72916667 12.25 -1.5625 15.25 C0.00691198 16.81941198 1.57884994 16.4949847 3.75 16.5625 C7.26449145 16.54571103 8.13059167 16.48953821 11 14.25 C11.7115625 13.26 11.7115625 13.26 12.4375 12.25 C10.71523504 9.00150023 10.71523504 9.00150023 7.4375 8.25 C2.56086304 7.62391313 2.56086304 7.62391313 -1.5625 9.25 Z M-1.5625 24.25 C-1.5625 26.56 -1.5625 28.87 -1.5625 31.25 C3.92696087 32.37029814 7.27180559 32.04217969 12.4375 30.25 C12.7675 28.6 13.0975 26.95 13.4375 25.25 C8.113165 22.92913603 3.99907448 23.33542997 -1.5625 24.25 Z " fill="#F9F9FA" transform="translate(269.5625,173.75)"/>
<path d="M0 0 C5.12642538 0.53640742 10.16514634 0.62077193 15.3125 0.5625 C15.38699251 5.00989413 15.44126257 9.4569519 15.47729492 13.90478516 C15.49232543 15.41591727 15.51275564 16.92700618 15.53881836 18.43798828 C15.57545689 20.61762187 15.59228338 22.79667575 15.60546875 24.9765625 C15.6211792 26.2857666 15.63688965 27.5949707 15.65307617 28.94384766 C15.28365946 32.86893332 14.4074455 35.24240605 12.3125 38.5625 C5.68288961 42.65311067 -1.02263466 43.37432205 -8.6875 42.5625 C-11.64990362 41.50085614 -13.97443041 40.20057975 -16.6875 38.5625 C-15.24199331 33.02139101 -15.24199331 33.02139101 -12.875 31.0625 C-9.90946052 30.3846624 -8.47156778 31.39707628 -5.6875 32.5625 C-0.34531245 32.95281455 -0.34531245 32.95281455 4.3125 30.5625 C4.3125 29.9025 4.3125 29.2425 4.3125 28.5625 C3.3534375 29.0884375 3.3534375 29.0884375 2.375 29.625 C-1.8939638 30.93182565 -5.40435869 30.83428599 -9.6875 29.5625 C-13.55295987 27.16275353 -16.23476913 24.92069261 -17.6875 20.5625 C-18.19726619 15.2392039 -18.35802598 10.90355196 -15.9375 6.0625 C-10.92708556 0.49537284 -7.40626057 -0.7841923 0 0 Z M-5.5 10.6875 C-8.02104888 13.38338322 -8.02104888 13.38338322 -7.625 16.75 C-6.88781442 19.66032797 -6.88781442 19.66032797 -4.6875 21.5625 C-0.0452566 22.01119173 -0.0452566 22.01119173 4.25 20.5 C5.94585287 17.40756242 5.74310657 15.00735259 5.3125 11.5625 C3.67799876 9.50304984 3.67799876 9.50304984 1.3125 8.5625 C-2.74309214 8.16061127 -2.74309214 8.16061127 -5.5 10.6875 Z " fill="#F8F8F8" transform="translate(458.6875,182.4375)"/>
<path d="M0 0 C2.69700827 3.01545021 3.44157648 5.17206302 3.75 9.1875 C3.82734375 10.06792969 3.9046875 10.94835937 3.984375 11.85546875 C3.99210937 12.91701172 3.99210937 12.91701172 4 14 C2.41596476 15.58403524 0.7228362 15.21974935 -1.47265625 15.31640625 C-2.37177734 15.35830078 -3.27089844 15.40019531 -4.19726562 15.44335938 C-5.14279297 15.48267578 -6.08832031 15.52199219 -7.0625 15.5625 C-8.01189453 15.60568359 -8.96128906 15.64886719 -9.93945312 15.69335938 C-12.29281353 15.79979276 -14.64628354 15.90181008 -17 16 C-15.79338423 17.43433481 -15.79338423 17.43433481 -12.25 17.125 C-9.73870032 17.10706215 -7.7164765 16.93556284 -5.25 16.375 C-3 16 -3 16 -0.75 16.6875 C1 18 1 18 1.75 20.125 C1.87375 21.053125 1.87375 21.053125 2 22 C-4.83971693 26.711805 -9.76991686 27.81725301 -18 27 C-21.95414987 25.73496119 -24.54481205 23.46685943 -27.4375 20.5 C-29.74605215 15.32884318 -29.75690652 10.57358439 -29 5 C-26.86210085 0.48665736 -24.547377 -1.94285326 -20 -4 C-12.41272022 -6.02327461 -6.11278652 -4.97552391 0 0 Z M-16 4 C-16.66 5.32 -17.32 6.64 -18 8 C-14.37 8 -10.74 8 -7 8 C-7.33 6.68 -7.66 5.36 -8 4 C-10.64 4 -13.28 4 -16 4 Z " fill="#F7F7F7" transform="translate(506,187)"/>
<path d="M0 0 C8.58 0 17.16 0 26 0 C26 9 26 9 23.62890625 12.21484375 C22.62888726 13.14670941 21.6058735 14.05444659 20.5625 14.9375 C16.80474602 18.08407946 16.80474602 18.08407946 14 22 C14.85464844 21.98839844 15.70929688 21.97679687 16.58984375 21.96484375 C17.69457031 21.95582031 18.79929687 21.94679687 19.9375 21.9375 C21.03964844 21.92589844 22.14179688 21.91429687 23.27734375 21.90234375 C26 22 26 22 27 23 C27 25.31 27 27.62 27 30 C18.09 30 9.18 30 0 30 C-1 25 -1 25 0.14453125 22.515625 C2.17808003 19.75856098 4.3549842 17.25905082 6.6875 14.75 C9.50474442 12.2262891 9.50474442 12.2262891 11 9 C10.28972656 9.01160156 9.57945312 9.02320313 8.84765625 9.03515625 C7.92855469 9.04417969 7.00945312 9.05320313 6.0625 9.0625 C5.14597656 9.07410156 4.22945313 9.08570313 3.28515625 9.09765625 C1 9 1 9 0 8 C0 5.36 0 2.72 0 0 Z " fill="#F8F8F8" transform="translate(311,183)"/>
<path d="M0 0 C1.23556641 0.01740234 1.23556641 0.01740234 2.49609375 0.03515625 C3.32238281 0.04417969 4.14867187 0.05320313 5 0.0625 C5.63808594 0.07410156 6.27617187 0.08570313 6.93359375 0.09765625 C7.79685385 3.81654491 8.05080931 7.24062113 8.03125 11.0546875 C8.02802734 12.16650391 8.02480469 13.27832031 8.02148438 14.42382812 C8.01310547 15.57431641 8.00472656 16.72480469 7.99609375 17.91015625 C7.99158203 19.07998047 7.98707031 20.24980469 7.98242188 21.45507812 C7.97066305 24.33598983 7.95422801 27.21679669 7.93359375 30.09765625 C9.14917969 30.15824219 10.36476563 30.21882813 11.6171875 30.28125 C13.20183603 30.36563957 14.78647077 30.45028835 16.37109375 30.53515625 C17.17353516 30.57447266 17.97597656 30.61378906 18.80273438 30.65429688 C24.8203125 30.984375 24.8203125 30.984375 25.93359375 32.09765625 C25.97452312 34.43063058 25.97601098 36.7647085 25.93359375 39.09765625 C21.96428386 39.12231506 17.99500341 39.14049648 14.02563477 39.15258789 C12.67438989 39.15762682 11.32315049 39.16445802 9.97192383 39.1730957 C8.03338941 39.18518044 6.09481575 39.19035453 4.15625 39.1953125 C2.40453491 39.20316772 2.40453491 39.20316772 0.61743164 39.21118164 C-2.06640625 39.09765625 -2.06640625 39.09765625 -3.06640625 38.09765625 C-3.16740113 35.37041346 -3.20611154 32.66903102 -3.19921875 29.94140625 C-3.20017548 29.12393921 -3.2011322 28.30647217 -3.20211792 27.4642334 C-3.2027997 25.73250247 -3.20094554 24.00076901 -3.19677734 22.26904297 C-3.19142904 19.60899143 -3.19672237 16.94910875 -3.203125 14.2890625 C-3.20246422 12.61067671 -3.20118305 10.93229102 -3.19921875 9.25390625 C-3.20124298 8.45287476 -3.20326721 7.65184326 -3.20535278 6.82653809 C-3.17681568 0.15013307 -3.17681568 0.15013307 0 0 Z " fill="#FAFAFA" transform="translate(345.06640625,173.90234375)"/>
<path d="M0 0 C1.18613892 0.00785522 1.18613892 0.00785522 2.39624023 0.01586914 C3.67724609 0.02070313 3.67724609 0.02070313 4.98413086 0.02563477 C5.88196289 0.03401367 6.77979492 0.04239258 7.70483398 0.05102539 C8.6065332 0.05553711 9.50823242 0.06004883 10.43725586 0.06469727 C12.67230988 0.07652295 14.90733 0.09445901 17.14233398 0.11352539 C17.14233398 3.08352539 17.14233398 6.05352539 17.14233398 9.11352539 C16.00795898 9.40227539 14.87358398 9.69102539 13.70483398 9.98852539 C12.52920898 10.35977539 11.35358398 10.73102539 10.14233398 11.11352539 C8.30125452 14.79568432 8.72730498 19.35544313 8.53686523 23.43579102 C8.24307254 29.01278684 8.24307254 29.01278684 7.14233398 30.11352539 C1.33791588 31.12699522 1.33791588 31.12699522 -0.85766602 31.11352539 C-2.85766602 29.11352539 -2.85766602 29.11352539 -3.10058594 26.33203125 C-3.09442261 24.59771851 -3.09442261 24.59771851 -3.08813477 22.82836914 C-3.08620117 21.57604492 -3.08426758 20.3237207 -3.08227539 19.03344727 C-3.0700293 17.71924805 -3.0577832 16.40504883 -3.04516602 15.05102539 C-3.04452148 13.73295898 -3.04387695 12.41489258 -3.04321289 11.05688477 C-2.99279254 0.18289506 -2.99279254 0.18289506 0 0 Z " fill="#F5F4F5" transform="translate(514.857666015625,182.886474609375)"/>
<path d="M0 0 C0.8146875 0.00257813 1.629375 0.00515625 2.46875 0.0078125 C3.2834375 0.00523437 4.098125 0.00265625 4.9375 0 C6.96875 0.1328125 6.96875 0.1328125 7.96875 1.1328125 C8.06868532 3.1933656 8.09955906 5.2573384 8.1015625 7.3203125 C8.10349609 9.20363281 8.10349609 9.20363281 8.10546875 11.125 C8.10232666 12.11064941 8.10232666 12.11064941 8.09912109 13.11621094 C8.09377234 15.12442585 8.09906691 17.13241709 8.10546875 19.140625 C8.10417969 20.39617187 8.10289062 21.65171875 8.1015625 22.9453125 C8.10043457 24.10675781 8.09930664 25.26820313 8.09814453 26.46484375 C7.96875 29.1328125 7.96875 29.1328125 6.96875 30.1328125 C5.47136876 30.2307182 3.96932108 30.26256114 2.46875 30.2578125 C1.6540625 30.26039063 0.839375 30.26296875 0 30.265625 C-2.03125 30.1328125 -2.03125 30.1328125 -3.03125 29.1328125 C-3.13118532 27.0722594 -3.16205906 25.0082866 -3.1640625 22.9453125 C-3.16535156 21.68976563 -3.16664063 20.43421875 -3.16796875 19.140625 C-3.16587402 18.48352539 -3.1637793 17.82642578 -3.16162109 17.14941406 C-3.15627234 15.14119915 -3.16156691 13.13320791 -3.16796875 11.125 C-3.16667969 9.86945313 -3.16539062 8.61390625 -3.1640625 7.3203125 C-3.16237061 5.57814453 -3.16237061 5.57814453 -3.16064453 3.80078125 C-2.98577764 0.19522392 -2.98577764 0.19522392 0 0 Z " fill="#F8F7F8" transform="translate(299.03125,182.8671875)"/>
<path d="M0 0 C0 4.29 0 8.58 0 13 C-2.75078884 13.91692961 -4.35948913 14.10886083 -7.1875 14.0625 C-9.0746875 14.0315625 -9.0746875 14.0315625 -11 14 C-12.53166168 9.91556885 -11.63081652 6.20544343 -11 2 C-9.54494642 1.47007308 -8.08581873 0.9513211 -6.625 0.4375 C-5.81289062 0.14746094 -5.00078125 -0.14257812 -4.1640625 -0.44140625 C-2 -1 -2 -1 0 0 Z " fill="#F4F4F4" transform="translate(139,211)"/>
<path d="M0 0 C3.625 0.375 3.625 0.375 7 1 C9.125 6.625 9.125 6.625 8 10 C4.4375 11.1875 4.4375 11.1875 1 12 C-0.65 10.35 -2.3 8.7 -4 7 C-2.92598892 4.08482708 -2.22189824 2.22189824 0 0 Z " fill="#F3F2F3" transform="translate(299,170)"/>
<path d="M0 0 C0.66 0 1.32 0 2 0 C2 1.32 2 2.64 2 4 C2.66 4.33 3.32 4.66 4 5 C3.67 5.66 3.34 6.32 3 7 C3.66 7 4.32 7 5 7 C5 7.99 5 8.98 5 10 C3.35 10 1.7 10 0 10 C-0.33 10.99 -0.66 11.98 -1 13 C-2.32 12.67 -3.64 12.34 -5 12 C-5.33 10.68 -5.66 9.36 -6 8 C-2.25 5 -2.25 5 0 5 C0 3.35 0 1.7 0 0 Z " fill="#EEEEEE" transform="translate(110,152)"/>
<path d="M0 0 C0.33 0 0.66 0 1 0 C1 14.85 1 29.7 1 45 C0.01 44.67 -0.98 44.34 -2 44 C-2.125 38.25 -2.125 38.25 -1 36 C-0.84323225 33.30344554 -0.74163685 30.62870023 -0.68359375 27.9296875 C-0.66281265 27.13345978 -0.64203156 26.33723206 -0.62062073 25.51687622 C-0.55515851 22.96967315 -0.49625585 20.42236575 -0.4375 17.875 C-0.3943116 16.14972873 -0.35069721 14.42446807 -0.30664062 12.69921875 C-0.19948055 8.46625315 -0.09820377 4.23318247 0 0 Z " fill="#D5D5D6" transform="translate(165,139)"/>
<path d="M0 0 C0.80050781 0.12761719 1.60101563 0.25523437 2.42578125 0.38671875 C3.23402344 0.50660156 4.04226562 0.62648437 4.875 0.75 C5.48988281 0.85699219 6.10476562 0.96398437 6.73828125 1.07421875 C7.06828125 2.06421875 7.39828125 3.05421875 7.73828125 4.07421875 C3.44828125 3.74421875 -0.84171875 3.41421875 -5.26171875 3.07421875 C-2.26171875 0.07421875 -2.26171875 0.07421875 0 0 Z " fill="#E5E5E6" transform="translate(152.26171875,149.92578125)"/>
<path d="M0 0 C2 4 2 4 2 6 C2.66 6 3.32 6 4 6 C4 7.32 4 8.64 4 10 C3.34 10 2.68 10 2 10 C1.34 10.66 0.68 11.32 0 12 C0 8.04 0 4.08 0 0 Z " fill="#CAC9CA" transform="translate(162,206)"/>
<path d="M0 0 C0.99 0.33 1.98 0.66 3 1 C1.19587357 4.26460973 0.16605307 5.88929795 -3 8 C-3.75 6.25 -3.75 6.25 -4 4 C-2.0625 1.75 -2.0625 1.75 0 0 Z " fill="#C4C4C5" transform="translate(103,192)"/>
<path d="M0 0 C0.66 0.33 1.32 0.66 2 1 C1.07456291 2.34173403 0.13422595 3.67320159 -0.8125 5 C-1.33457031 5.7425 -1.85664063 6.485 -2.39453125 7.25 C-2.92433594 7.8275 -3.45414063 8.405 -4 9 C-4.99 9 -5.98 9 -7 9 C-6.67 7.68 -6.34 6.36 -6 5 C-4.68 5 -3.36 5 -2 5 C-1.855625 4.360625 -1.71125 3.72125 -1.5625 3.0625 C-1 1 -1 1 0 0 Z " fill="#EFEFF0" transform="translate(173,177)"/>
<path d="M0 0 C0.66 0 1.32 0 2 0 C2 2.97 2 5.94 2 9 C1.01 8.67 0.02 8.34 -1 8 C-1.125 2.25 -1.125 2.25 0 0 Z " fill="#989899" transform="translate(164,175)"/>
</svg>
