<svg xmlns="http://www.w3.org/2000/svg" width="1024" height="1024" viewBox="0 0 1024 1024">
<g>
<path d="M 514.44 635.56 C502.58,637.74 477.12,638.26 465.00,636.58 C449.80,634.46 429.65,628.88 427.00,626.04 C426.17,625.15 423.02,622.88 420.00,620.98 C412.05,615.99 412.32,616.21 403.70,607.64 C397.39,601.36 394.97,598.04 391.65,591.14 L 387.50 582.50 L 387.55 568.50 C387.60,555.89 387.87,553.77 390.28,547.15 C393.64,537.90 400.62,525.04 406.56,517.13 C411.92,510.00 425.29,497.33 432.47,492.57 C440.42,487.30 454.78,480.43 463.50,477.71 C478.84,472.94 498.86,471.95 508.98,475.47 C510.91,476.15 513.12,476.48 513.89,476.22 C514.65,475.96 515.69,476.47 516.19,477.37 C516.69,478.27 517.79,479.00 518.63,479.00 C523.38,479.00 537.08,491.32 543.27,501.16 C551.87,514.83 554.41,524.55 554.46,544.00 C554.49,557.26 554.16,560.65 552.20,567.42 C546.54,587.00 533.06,606.24 515.77,619.45 C507.65,625.65 489.18,633.98 483.50,634.01 C481.85,634.02 479.83,634.47 479.00,635.00 C475.37,637.34 503.59,635.49 518.85,632.38 C526.79,630.76 546.25,624.57 549.50,622.62 C552.44,620.87 557.00,618.97 557.00,619.51 C557.00,620.28 545.17,626.00 543.58,626.00 C542.76,626.00 541.72,626.68 541.25,627.51 C540.77,628.37 537.23,629.69 532.99,630.57 C528.90,631.42 525.07,632.52 524.48,633.02 C523.88,633.52 519.36,634.66 514.44,635.56 ZM 421.60 600.01 C432.55,603.51 451.77,602.19 465.75,596.98 C505.87,582.04 534.16,543.31 527.64,512.28 C525.28,501.06 518.89,492.10 509.96,487.48 C496.23,480.38 472.64,481.66 453.26,490.54 C427.34,502.42 406.49,523.74 397.90,547.14 C394.60,556.12 394.49,572.31 397.68,579.21 C402.28,589.18 410.75,596.54 421.60,600.01 ZM 572.79 719.25 L 572.50 727.50 L 566.96 727.79 C563.91,727.96 561.10,727.77 560.71,727.38 C560.32,726.99 560.00,713.47 560.00,697.33 L 560.00 668.00 L 573.86 668.00 C595.44,668.00 602.99,670.13 608.36,677.73 C611.71,682.47 612.70,688.69 611.06,694.77 C609.82,699.39 605.04,705.53 601.94,706.52 C600.87,706.86 600.00,707.44 600.01,707.82 C600.01,708.19 602.97,712.48 606.57,717.35 C610.18,722.22 612.99,726.32 612.82,726.46 C612.64,726.60 609.73,727.00 606.35,727.33 L 600.20 727.95 L 596.83 723.72 C594.97,721.40 592.17,717.59 590.59,715.25 L 587.73 711.00 L 573.08 711.00 ZM 413.50 709.75 L 413.50 727.50 L 407.96 727.79 C404.91,727.96 402.10,727.77 401.71,727.38 C401.32,726.99 401.00,713.45 401.00,697.29 L 401.00 667.90 L 407.19 668.20 L 413.37 668.50 L 420.69 681.00 C424.72,687.88 429.42,696.09 431.15,699.25 C432.87,702.41 434.60,705.00 435.00,705.00 C435.40,705.00 440.40,696.69 446.11,686.54 L 456.50 668.07 L 462.26 668.04 L 468.03 668.00 L 467.76 697.75 L 467.50 727.50 L 461.75 727.80 L 456.00 728.10 L 456.00 710.05 C456.00,700.12 455.63,692.00 455.19,692.00 C454.74,692.00 453.62,693.46 452.69,695.25 C451.77,697.04 449.23,701.42 447.05,705.00 C444.87,708.58 441.92,713.66 440.49,716.31 C438.17,720.63 437.59,721.09 434.83,720.81 C432.04,720.53 430.96,719.18 423.13,706.28 C418.38,698.46 414.27,692.04 414.00,692.03 C413.73,692.01 413.50,699.99 413.50,709.75 ZM 718.00 710.00 L 718.00 728.00 L 712.17 728.00 C708.96,728.00 706.02,727.69 705.64,727.31 C705.26,726.93 704.99,713.43 705.03,697.31 L 705.11 668.00 L 710.60 668.00 C711.08,668.00 711.50,667.99 711.89,667.98 C712.87,667.96 713.63,667.94 714.36,668.09 C717.31,668.69 719.71,672.00 733.21,688.71 C739.97,697.08 745.84,703.94 746.25,703.96 C746.66,703.98 747.00,695.90 747.00,686.00 L 747.00 668.00 L 753.25 668.00 L 759.50 668.00 L 759.30 697.75 L 759.10 727.50 L 754.64 727.80 C754.35,727.82 754.08,727.84 753.82,727.86 C753.01,727.93 752.35,727.99 751.72,727.90 C748.94,727.51 746.55,724.40 732.71,707.75 C725.51,699.09 719.25,692.00 718.81,692.00 C718.36,692.00 718.00,700.10 718.00,710.00 ZM 497.77 721.30 L 495.23 727.50 L 489.10 727.63 C485.73,727.70 482.75,727.41 482.49,726.98 C482.22,726.55 484.19,721.32 486.86,715.35 C489.53,709.38 494.49,698.20 497.88,690.50 C501.27,682.80 504.94,674.57 506.03,672.21 L 508.02 667.91 L 515.06 668.21 L 522.11 668.50 L 529.15 684.50 C533.02,693.30 538.81,706.33 542.03,713.45 C545.24,720.57 547.65,726.76 547.38,727.20 C546.56,728.53 535.21,728.14 534.31,726.75 C533.86,726.07 532.53,723.25 531.34,720.50 L 529.19 715.50 L 520.04 714.64 C515.01,714.17 508.51,714.08 505.60,714.44 L 500.31 715.11 ZM 639.61 726.25 C639.16,727.68 637.88,728.00 632.53,728.00 C628.60,728.00 626.00,727.58 626.00,726.94 C626.00,726.36 631.10,714.32 637.33,700.19 C643.56,686.06 649.23,673.04 649.95,671.25 C651.24,668.00 651.25,668.00 658.48,668.00 L 665.71 668.00 L 676.43 692.25 C682.32,705.59 688.25,718.71 689.61,721.41 C691.05,724.29 691.70,726.70 691.18,727.22 C690.69,727.71 687.68,727.97 684.50,727.80 C678.18,727.47 678.35,727.62 674.91,719.25 L 672.75 714.00 L 661.50 714.00 C645.53,714.00 644.66,714.26 642.20,719.85 C641.08,722.41 639.91,725.29 639.61,726.25 ZM 274.79 719.74 L 274.50 727.14 L 268.83 727.48 C265.71,727.67 262.90,727.57 262.58,727.25 C262.26,726.93 262.00,713.47 262.00,697.33 L 262.00 668.00 L 275.00 668.00 L 275.09 696.50 L 288.79 682.22 L 302.50 667.95 L 309.86 667.97 L 317.22 668.00 L 308.86 677.09 C304.26,682.09 298.79,688.15 296.71,690.55 L 292.92 694.92 L 300.77 704.71 C314.94,722.37 317.94,726.46 317.22,727.05 C316.82,727.37 313.37,727.38 309.55,727.07 L 302.61 726.50 L 295.69 718.00 C291.89,713.33 287.71,708.15 286.42,706.51 L 284.07 703.52 L 279.57 707.93 C275.13,712.28 275.07,712.43 274.79,719.74 ZM 366.59 726.53 C362.24,727.82 350.28,728.44 347.50,727.51 C346.95,727.33 345.25,726.90 343.72,726.56 C340.04,725.75 333.38,719.62 330.69,714.57 C328.70,710.84 328.49,708.75 328.18,689.25 L 327.83 668.00 L 341.00 668.00 L 341.02 685.25 C341.05,705.19 341.74,709.21 345.86,713.32 C349.67,717.13 357.80,718.19 362.92,715.54 C368.90,712.45 369.95,708.16 369.98,686.75 L 370.00 668.00 L 383.17 668.00 L 382.83 689.25 C382.53,707.58 382.23,710.98 380.63,714.00 C377.43,720.04 371.95,724.94 366.59,726.53 ZM 566.50 627.25 C552.11,632.23 540.00,635.28 540.00,633.92 C540.00,633.43 541.24,632.76 542.75,632.42 C550.23,630.74 567.71,623.95 577.81,618.79 C620.61,596.96 647.91,565.73 662.90,521.47 C673.06,491.46 675.31,461.22 669.85,428.01 C668.72,421.15 666.76,411.93 665.48,407.53 C664.21,403.14 663.38,399.19 663.64,398.77 C663.90,398.35 665.11,398.00 666.32,398.00 C668.30,398.00 668.80,399.14 671.23,409.25 C676.55,431.32 677.38,438.17 677.37,460.00 C677.36,488.41 674.21,507.47 665.78,530.00 C657.47,552.25 646.04,570.69 630.53,586.88 C611.98,606.24 593.46,617.92 566.50,627.25 ZM 402.95 784.03 C398.43,786.33 395.03,786.45 389.50,784.50 C384.66,782.78 381.47,779.31 379.89,774.02 C378.89,770.70 378.98,769.34 380.43,765.55 C382.86,759.18 386.82,756.63 394.98,756.18 C400.52,755.88 402.03,756.18 405.00,758.18 C409.90,761.46 412.39,766.91 411.56,772.48 C410.76,777.81 408.07,781.41 402.95,784.03 ZM 494.03 783.75 C485.89,787.86 477.70,785.58 472.59,777.78 C470.40,774.44 470.30,767.25 472.39,763.21 C477.46,753.42 496.07,753.35 501.05,763.10 C505.21,771.26 502.40,779.52 494.03,783.75 ZM 528.29 775.89 L 527.70 785.00 L 520.00 785.00 L 520.00 756.00 L 524.00 756.00 C527.02,756.00 528.00,756.40 528.00,757.61 C528.00,759.07 528.25,759.06 530.63,757.50 C534.79,754.78 544.58,755.81 547.57,759.28 C550.05,762.17 551.41,770.60 550.83,779.50 L 550.50 784.50 L 542.00 785.11 L 542.00 776.28 C542.00,765.75 540.68,763.00 535.60,763.00 C530.35,763.00 528.97,765.44 528.29,775.89 ZM 588.16 784.41 C584.21,786.46 581.34,786.42 577.00,784.25 C571.62,781.56 570.00,777.28 570.00,765.75 L 570.00 756.00 L 578.93 756.00 L 579.22 766.24 C579.49,776.28 579.55,776.50 582.22,777.78 C584.51,778.87 585.41,778.84 587.84,777.58 C591.37,775.76 591.97,773.75 591.99,763.75 L 592.00 756.00 L 600.00 756.00 L 600.00 785.00 L 596.70 785.00 C594.89,785.00 592.91,784.51 592.31,783.91 C591.53,783.13 590.37,783.28 588.16,784.41 ZM 573.75 700.44 C574.94,701.67 591.27,700.02 593.73,698.43 C599.44,694.72 600.28,686.49 595.41,681.91 C593.12,679.76 591.77,679.46 582.92,679.16 L 573.00 678.81 L 573.00 689.24 C573.00,694.97 573.34,700.01 573.75,700.44 ZM 672.10 784.99 C667.23,786.34 663.27,786.19 658.50,784.47 C656.30,783.68 654.39,783.02 654.25,783.02 C653.50,782.97 654.18,780.13 655.33,778.56 C656.45,777.03 657.01,776.93 658.94,777.97 C661.93,779.57 669.76,779.65 671.29,778.09 C673.09,776.27 670.01,774.39 663.89,773.58 C653.28,772.17 650.19,762.06 658.98,757.51 C662.30,755.80 672.53,755.49 676.47,756.99 C679.02,757.96 679.03,758.03 677.46,761.07 C676.27,763.38 675.44,763.97 674.18,763.41 C671.46,762.20 664.62,761.86 663.10,762.87 C660.32,764.72 662.79,766.75 669.17,767.86 C676.95,769.21 680.55,772.49 679.58,777.35 C678.77,781.40 676.44,783.78 672.10,784.99 ZM 358.32 784.55 C351.01,787.16 344.65,785.57 339.48,779.85 C336.47,776.51 336.00,775.31 336.00,770.90 C336.00,761.55 342.02,756.00 352.14,756.00 C361.95,756.00 368.84,761.93 362.42,764.86 C360.20,765.86 359.45,765.81 358.04,764.54 C357.09,763.68 354.53,763.00 352.24,763.00 C349.01,763.00 347.71,763.55 346.07,765.63 C343.20,769.29 343.47,772.63 346.92,776.08 C350.37,779.52 353.71,779.80 357.35,776.94 C359.90,774.93 360.07,774.93 362.99,776.65 C364.64,777.63 366.00,778.71 366.00,779.06 C366.00,780.37 361.98,783.24 358.32,784.55 ZM 448.07 785.00 C443.44,786.28 441.32,786.20 436.74,784.57 C429.79,782.09 427.00,778.00 427.00,770.28 C427.00,760.43 433.53,755.36 445.15,756.20 C449.97,756.55 451.60,757.15 453.79,759.38 L 456.50 762.12 L 454.14 764.06 C451.30,766.39 449.67,766.51 448.00,764.50 C446.15,762.27 439.43,762.57 437.00,765.00 C435.03,766.97 434.40,771.28 435.62,774.46 C437.25,778.69 445.23,779.91 448.69,776.45 C450.54,774.60 450.97,774.64 453.99,776.96 L 456.47 778.87 L 454.06 781.43 C452.73,782.85 450.04,784.45 448.07,785.00 ZM 637.29 784.75 C632.83,788.08 623.08,784.11 621.87,778.46 C621.52,776.83 621.18,772.69 621.12,769.25 C621.01,763.71 620.77,763.00 619.00,763.00 C617.44,763.00 617.00,762.33 617.00,760.00 C617.00,757.70 617.45,757.00 618.94,757.00 C620.46,757.00 620.95,756.19 621.19,753.25 C621.49,749.61 621.62,749.49 625.75,749.19 L 630.00 748.89 L 630.00 752.94 C630.00,756.91 630.08,757.00 633.50,757.00 C636.72,757.00 637.00,757.24 637.00,760.00 C637.00,762.76 636.72,763.00 633.50,763.00 L 630.00 763.00 L 630.00 769.80 C630.00,777.27 630.95,779.00 635.08,779.00 C638.44,779.00 639.90,782.81 637.29,784.75 ZM 649.00 704.25 C649.00,704.66 653.28,705.00 658.50,705.00 C665.43,705.00 668.00,704.66 668.02,703.75 C668.04,701.47 659.52,682.02 658.50,682.03 C657.63,682.05 649.00,702.23 649.00,704.25 ZM 505.01 704.25 C505.00,704.66 509.25,705.00 514.44,705.00 C519.63,705.00 524.07,704.66 524.31,704.25 C524.99,703.04 515.67,681.94 514.61,682.30 C513.73,682.59 505.02,702.49 505.01,704.25 ZM 634.50 308.54 C632.30,310.27 629.83,312.05 629.00,312.49 C627.15,313.48 635.70,305.86 637.89,304.57 C638.76,304.05 640.38,302.78 641.49,301.74 C645.88,297.61 668.58,285.11 682.50,279.16 C699.01,272.10 723.73,266.00 735.81,266.00 C740.58,266.00 742.75,264.74 739.75,263.72 C739.06,263.48 739.62,263.47 741.00,263.68 C744.67,264.25 749.00,266.11 749.00,267.12 C749.00,267.60 743.94,268.00 737.75,268.00 C725.99,268.00 709.74,270.27 709.17,272.00 C708.98,272.55 708.18,273.00 707.38,273.00 C706.57,273.00 701.39,274.58 695.86,276.50 C690.33,278.42 684.99,280.00 683.99,280.00 C678.91,280.00 648.37,297.62 634.50,308.54 ZM 481.80 775.95 C485.43,779.58 487.99,779.79 491.45,776.75 C497.34,771.56 494.64,763.00 487.12,763.00 C482.20,763.00 480.09,764.69 479.35,769.21 C478.83,772.41 479.16,773.32 481.80,775.95 ZM 390.45 776.55 C391.80,777.90 394.08,779.00 395.50,779.00 C399.32,779.00 403.00,774.85 403.00,770.55 C403.00,765.90 400.12,763.00 395.50,763.00 C388.37,763.00 385.26,771.35 390.45,776.55 Z" fill="rgb(43,26,14)"/>
<path d="M 634.50 308.54 C648.37,297.62 678.91,280.00 683.99,280.00 C684.77,280.00 688.24,279.03 692.37,277.68 C672.29,284.91 651.73,296.17 635.21,309.26 C631.74,312.00 629.05,314.38 629.21,314.55 C629.38,314.71 632.21,314.21 635.51,313.43 C644.79,311.24 659.59,310.57 669.08,311.91 C695.82,315.68 717.82,327.19 736.45,347.18 C751.05,362.84 769.05,392.00 764.12,392.00 C763.64,392.00 762.72,391.37 762.08,390.59 C761.43,389.82 756.65,386.36 751.45,382.92 C746.25,379.47 742.00,376.28 742.00,375.83 C742.00,375.37 741.32,375.00 740.48,375.00 C739.65,375.00 734.58,372.82 729.23,370.15 C723.88,367.48 717.36,364.49 714.75,363.51 C712.14,362.53 710.00,361.39 710.00,360.97 C710.00,360.21 706.14,358.93 702.50,358.49 C698.65,358.03 683.50,353.74 683.00,352.98 C682.47,352.15 679.08,351.70 675.00,351.91 C672.60,352.03 672.64,352.12 676.00,354.22 C681.86,357.88 692.70,368.93 698.08,376.71 C703.59,384.67 710.66,399.19 713.34,408.00 C718.24,424.12 720.51,439.00 718.07,439.00 C717.16,439.00 713.00,433.36 713.00,432.12 C713.00,431.60 712.61,431.02 712.13,430.83 C711.65,430.65 707.68,426.23 703.29,421.00 C690.44,405.67 672.21,389.64 657.25,380.53 C653.81,378.43 651.00,376.35 651.00,375.91 C651.00,374.83 631.29,365.00 629.13,365.00 C628.20,365.00 623.92,363.85 619.61,362.44 C615.31,361.04 611.58,360.09 611.33,360.33 C611.09,360.58 612.23,362.97 613.88,365.65 C622.79,380.14 634.61,408.43 638.87,425.50 C651.48,476.00 642.29,530.25 614.22,571.00 C605.07,584.28 586.21,602.92 573.50,611.25 C555.98,622.74 540.14,629.77 521.93,633.92 C523.29,633.55 524.23,633.23 524.48,633.02 C525.07,632.52 528.90,631.42 532.99,630.57 C537.23,629.69 540.77,628.37 541.25,627.51 C541.72,626.68 542.76,626.00 543.58,626.00 C545.17,626.00 557.00,620.28 557.00,619.51 C557.00,618.97 552.44,620.87 549.50,622.62 C546.25,624.57 526.79,630.76 518.85,632.38 C503.59,635.49 475.37,637.34 479.00,635.00 C479.83,634.47 481.85,634.02 483.50,634.01 C489.18,633.98 507.65,625.65 515.77,619.45 C533.06,606.24 546.54,587.00 552.20,567.42 C554.16,560.65 554.49,557.26 554.46,544.00 C554.44,536.10 554.01,529.81 552.93,524.20 C553.69,527.36 554.24,530.56 554.56,533.78 C554.87,536.92 555.36,540.62 555.66,542.00 C556.17,544.43 556.31,544.37 560.75,539.50 C580.65,517.72 596.17,486.46 601.94,456.58 C607.21,429.27 604.85,397.58 595.24,366.65 L 592.49 357.81 L 587.21 361.36 C564.24,376.81 540.65,407.90 529.41,437.50 C524.88,449.45 516.53,477.04 517.30,477.57 C517.38,477.62 518.68,478.38 520.45,479.41 C519.75,479.14 519.14,479.00 518.63,479.00 C517.79,479.00 516.69,478.27 516.19,477.37 C515.69,476.47 514.65,475.96 513.89,476.22 C513.12,476.48 510.91,476.15 508.98,475.47 C507.78,475.06 506.44,474.70 504.99,474.41 C508.13,474.76 510.51,475.00 510.92,475.00 C512.49,475.00 512.23,471.54 509.98,462.50 C507.10,450.93 506.37,430.29 508.37,417.26 C510.14,405.74 513.76,394.05 517.97,386.25 C519.53,383.36 520.48,381.00 520.08,381.00 C518.38,381.00 501.81,392.90 493.50,400.09 C480.42,411.40 460.32,434.09 453.88,444.80 C452.65,446.83 451.54,448.66 451.39,448.85 C451.25,449.04 450.70,448.93 450.17,448.61 C449.57,448.23 449.55,446.51 450.11,443.99 C450.61,441.77 451.69,434.91 452.51,428.73 C457.78,389.10 477.58,358.43 509.02,341.20 C519.64,335.37 532.52,331.00 539.05,331.00 C540.67,331.00 542.00,330.55 542.00,330.00 C542.00,329.45 541.80,329.00 541.55,329.00 C541.30,329.00 538.49,328.30 535.30,327.45 C519.35,323.18 509.26,321.82 489.32,321.28 C473.24,320.84 466.64,321.09 456.82,322.47 C442.76,324.46 428.49,327.94 419.23,331.65 C415.72,333.05 412.64,333.98 412.38,333.71 C412.12,333.45 413.61,331.25 415.70,328.82 C417.79,326.39 420.85,322.69 422.50,320.59 C426.71,315.25 439.20,305.01 448.58,299.23 C468.44,286.98 486.94,282.23 510.50,283.32 C524.13,283.95 543.36,288.35 550.88,292.56 C553.31,293.92 555.54,294.80 555.82,294.51 C556.10,294.23 556.15,293.83 555.92,293.62 C554.28,292.11 534.17,279.49 528.50,276.40 C524.65,274.31 521.35,272.23 521.16,271.78 C520.62,270.49 515.31,268.00 513.08,268.00 C510.68,268.00 504.00,264.96 504.00,263.86 C504.00,263.44 502.31,262.83 500.25,262.51 C494.96,261.69 481.61,257.72 480.93,256.76 C480.22,255.76 463.73,253.05 456.43,252.73 C453.32,252.60 451.00,252.03 451.00,251.41 C451.00,250.26 463.77,244.04 470.38,241.97 C486.05,237.07 504.45,235.74 518.50,238.51 C545.61,243.83 571.25,260.44 588.75,284.00 C591.81,288.12 594.67,291.91 595.11,292.40 C595.55,292.90 599.09,289.89 603.01,285.70 C634.08,252.43 679.64,241.26 724.07,256.02 C729.09,257.69 736.65,260.58 740.85,262.44 C745.06,264.30 749.40,266.19 750.50,266.64 C751.90,267.22 750.56,267.55 746.00,267.73 L 745.82 267.73 C747.79,267.57 749.00,267.36 749.00,267.12 C749.00,266.11 744.67,264.25 741.00,263.68 C739.62,263.47 739.06,263.48 739.75,263.72 C742.75,264.74 740.58,266.00 735.81,266.00 C723.73,266.00 699.01,272.10 682.50,279.16 C668.58,285.11 645.88,297.61 641.49,301.74 C640.38,302.78 638.76,304.05 637.89,304.57 C635.70,305.86 627.15,313.48 629.00,312.49 C629.83,312.05 632.30,310.27 634.50,308.54 ZM 678.93 109.37 C676.07,113.00 669.34,113.09 666.75,109.53 C663.56,105.14 664.91,100.13 669.98,97.51 C670.15,97.42 670.32,97.33 670.48,97.25 C671.86,96.53 672.62,96.14 673.35,96.19 C674.32,96.26 675.22,97.14 677.47,99.10 C681.53,102.68 681.94,105.53 678.93,109.37 ZM 708.41 272.76 C708.78,272.57 709.07,272.30 709.17,272.00 C709.74,270.27 725.99,268.00 737.75,268.00 C739.25,268.00 740.69,267.98 742.01,267.94 C731.90,268.59 719.27,270.25 711.62,271.99 C710.55,272.23 709.48,272.49 708.41,272.76 ZM 435.22 629.75 C423.50,626.39 414.75,623.10 419.50,622.98 C421.33,622.94 421.28,622.75 418.90,620.72 C418.08,620.02 416.98,619.17 415.95,618.42 C417.05,619.13 418.35,619.94 420.00,620.98 C423.02,622.88 426.17,625.15 427.00,626.04 C427.93,627.03 430.99,628.36 435.22,629.75 ZM 536.92 635.36 C535.90,636.24 528.00,636.93 528.00,636.14 C528.00,635.15 535.97,633.63 536.80,634.47 C537.09,634.76 537.15,635.16 536.92,635.36 ZM 507.77 636.50 C497.43,637.97 483.36,638.20 471.34,637.19 C482.23,637.91 497.66,637.59 508.38,636.42 C508.18,636.45 507.98,636.47 507.77,636.50 ZM 401.79 524.16 C397.23,531.49 392.77,540.30 390.28,547.15 C393.23,539.02 397.09,531.33 401.79,524.16 ZM 492.96 473.37 C485.54,473.36 477.23,474.29 469.54,476.08 C477.47,474.11 485.32,473.19 492.96,473.37 ZM 527.74 484.11 C532.04,487.38 536.00,491.39 539.48,495.93 C535.99,491.61 531.66,487.30 527.74,484.11 ZM 457.51 479.87 C452.48,481.86 446.74,484.53 441.59,487.25 C443.10,486.44 444.73,485.61 446.50,484.72 C450.16,482.88 453.83,481.26 457.51,479.87 ZM 698.91 275.46 C703.18,274.04 706.72,273.00 707.38,273.00 C707.40,273.00 707.43,273.00 707.46,273.00 C704.64,273.73 701.79,274.55 698.91,275.46 ZM 425.77 497.73 C421.93,500.98 417.68,504.95 413.98,508.74 C415.68,506.94 417.45,505.18 419.28,503.48 C421.64,501.29 423.75,499.41 425.77,497.73 ZM 407.79 611.70 C406.46,610.44 405.04,609.05 403.65,607.66 C400.39,604.39 398.16,601.89 396.29,599.27 C398.15,601.87 400.39,604.35 403.70,607.64 C405.35,609.28 406.68,610.60 407.79,611.70 ZM 413.70 616.88 C413.59,616.81 413.46,616.72 413.32,616.61 C413.45,616.70 413.57,616.79 413.70,616.88 Z" fill="rgb(87,117,34)"/>
<path d="M 435.22 629.75 C435.34,629.79 435.46,629.83 435.58,629.87 C413.76,623.67 403.83,619.10 385.69,607.86 C337.25,577.85 304.87,522.19 303.75,467.00 L 303.50 454.50 L 315.00 454.28 C365.86,453.33 447.07,450.12 448.30,449.01 C449.28,448.14 436.70,445.64 420.50,443.50 C393.55,439.94 378.41,436.70 366.23,431.87 C361.98,430.19 356.25,427.92 353.50,426.82 C342.46,422.41 333.93,420.76 325.00,421.30 C320.33,421.58 314.52,422.53 312.09,423.42 C309.67,424.30 307.51,424.84 307.28,424.62 C307.06,424.39 307.77,420.45 308.87,415.85 C314.44,392.51 325.94,369.11 340.99,350.50 C347.56,342.38 366.55,324.68 375.02,318.80 C402.80,299.47 441.44,286.02 469.22,286.00 C472.97,286.00 479.90,285.43 485.55,284.68 C472.73,286.90 460.92,291.62 448.58,299.23 C439.20,305.01 426.71,315.25 422.50,320.59 C420.85,322.69 417.79,326.39 415.70,328.82 C413.61,331.25 412.12,333.45 412.38,333.71 C412.64,333.98 415.72,333.05 419.23,331.65 C428.49,327.94 442.76,324.46 456.82,322.47 C466.64,321.09 473.24,320.84 489.32,321.28 C509.26,321.82 519.35,323.18 535.30,327.45 C538.49,328.30 541.30,329.00 541.55,329.00 C541.80,329.00 542.00,329.45 542.00,330.00 C542.00,330.55 540.67,331.00 539.05,331.00 C532.52,331.00 519.64,335.37 509.02,341.20 C477.58,358.43 457.78,389.10 452.51,428.73 C451.69,434.91 450.61,441.77 450.11,443.99 C449.55,446.51 449.57,448.23 450.17,448.61 C450.70,448.93 451.25,449.04 451.39,448.85 C451.54,448.66 452.65,446.83 453.88,444.80 C460.32,434.09 480.42,411.40 493.50,400.09 C501.81,392.90 518.38,381.00 520.08,381.00 C520.48,381.00 519.53,383.36 517.97,386.25 C513.76,394.05 510.14,405.74 508.37,417.26 C506.37,430.29 507.10,450.93 509.98,462.50 C512.23,471.54 512.49,475.00 510.92,475.00 C510.51,475.00 508.13,474.76 504.99,474.41 C501.53,473.72 497.40,473.37 492.96,473.37 C485.32,473.19 477.47,474.11 469.54,476.08 C467.47,476.56 465.45,477.11 463.50,477.71 C461.71,478.27 459.67,479.01 457.51,479.87 C453.83,481.26 450.16,482.88 446.50,484.72 C444.73,485.61 443.10,486.44 441.59,487.25 C438.16,489.07 434.99,490.90 432.47,492.57 C430.58,493.82 428.26,495.62 425.77,497.73 L 425.77 497.73 C423.75,499.41 421.64,501.29 419.28,503.48 C417.45,505.18 415.68,506.94 413.98,508.74 C410.97,511.82 408.33,514.78 406.56,517.13 C405.01,519.19 403.39,521.59 401.79,524.17 C397.09,531.33 393.23,539.02 390.28,547.15 C387.87,553.77 387.60,555.89 387.55,568.50 L 387.50 582.50 L 391.65 591.14 C393.23,594.43 394.61,596.90 396.29,599.27 C398.16,601.89 400.39,604.39 403.65,607.66 C405.04,609.05 406.46,610.44 407.79,611.70 L 407.79 611.70 C410.19,614.04 411.64,615.36 413.32,616.61 C413.46,616.72 413.59,616.81 413.70,616.88 L 413.70 616.88 C414.38,617.38 415.10,617.87 415.95,618.42 C416.98,619.17 418.08,620.02 418.90,620.72 C421.28,622.75 421.33,622.94 419.50,622.98 C414.75,623.10 423.50,626.39 435.22,629.75 ZM 527.74 484.11 C524.96,481.85 522.39,480.15 520.45,479.41 C518.68,478.38 517.38,477.62 517.30,477.57 C516.53,477.04 524.88,449.45 529.41,437.50 C540.65,407.90 564.24,376.81 587.21,361.36 L 592.49 357.81 L 595.24 366.65 C604.85,397.58 607.21,429.27 601.94,456.58 C596.17,486.46 580.65,517.72 560.75,539.50 C556.31,544.37 556.17,544.43 555.66,542.00 C555.36,540.62 554.87,536.92 554.56,533.78 C554.24,530.56 553.69,527.36 552.93,524.20 C551.35,516.00 548.38,509.28 543.27,501.16 C542.20,499.46 540.91,497.69 539.48,495.93 C536.00,491.39 532.04,487.38 527.74,484.11 ZM 532.81 286.56 C525.40,284.88 517.26,283.64 510.50,283.32 C505.72,283.10 501.14,283.12 496.72,283.39 C508.68,282.56 520.78,283.62 532.81,286.56 ZM 507.77 636.50 C498.70,637.79 488.69,638.15 478.64,637.64 C488.76,638.06 499.46,637.68 507.77,636.50 Z" fill="rgb(245,123,41)"/>
<path d="M 0.00 512.00 L 0.00 0.00 L 512.00 0.00 L 1024.00 0.00 L 1024.00 512.00 L 1024.00 1024.00 L 512.00 1024.00 L 0.00 1024.00 L 0.00 512.00 ZM 358.32 784.55 C361.98,783.24 366.00,780.37 366.00,779.06 C366.00,778.71 364.64,777.63 362.99,776.65 C360.07,774.93 359.90,774.93 357.35,776.94 C353.71,779.80 350.37,779.52 346.92,776.08 C343.47,772.63 343.20,769.29 346.07,765.63 C347.71,763.55 349.01,763.00 352.24,763.00 C354.53,763.00 357.09,763.68 358.04,764.54 C359.45,765.81 360.20,765.86 362.42,764.86 C368.84,761.93 361.95,756.00 352.14,756.00 C342.02,756.00 336.00,761.55 336.00,770.90 C336.00,775.31 336.47,776.51 339.48,779.85 C344.65,785.57 351.01,787.16 358.32,784.55 ZM 402.95 784.03 C408.07,781.41 410.76,777.81 411.56,772.48 C412.39,766.91 409.90,761.46 405.00,758.18 C402.03,756.18 400.52,755.88 394.98,756.18 C386.82,756.63 382.86,759.18 380.43,765.55 C378.98,769.34 378.89,770.70 379.89,774.02 C381.47,779.31 384.66,782.78 389.50,784.50 C395.03,786.45 398.43,786.33 402.95,784.03 ZM 448.07 785.00 C450.04,784.45 452.73,782.85 454.06,781.43 L 456.47 778.87 L 453.99 776.96 C450.97,774.64 450.54,774.60 448.69,776.45 C445.23,779.91 437.25,778.69 435.62,774.46 C434.40,771.28 435.03,766.97 437.00,765.00 C439.43,762.57 446.15,762.27 448.00,764.50 C449.67,766.51 451.30,766.39 454.14,764.06 L 456.50 762.12 L 453.79 759.38 C451.60,757.15 449.97,756.55 445.15,756.20 C433.53,755.36 427.00,760.43 427.00,770.28 C427.00,778.00 429.79,782.09 436.74,784.57 C441.32,786.20 443.44,786.28 448.07,785.00 ZM 494.03 783.75 C502.40,779.52 505.21,771.26 501.05,763.10 C496.07,753.35 477.46,753.42 472.39,763.21 C470.30,767.25 470.40,774.44 472.59,777.78 C477.70,785.58 485.89,787.86 494.03,783.75 ZM 588.16 784.41 C590.37,783.28 591.53,783.13 592.31,783.91 C592.91,784.51 594.89,785.00 596.70,785.00 L 600.00 785.00 L 600.00 770.50 L 600.00 756.00 L 596.00 756.00 L 592.00 756.00 L 591.99 763.75 C591.97,773.75 591.37,775.76 587.84,777.58 C585.41,778.84 584.51,778.87 582.22,777.78 C579.55,776.50 579.49,776.28 579.22,766.24 L 578.93 756.00 L 574.47 756.00 L 570.00 756.00 L 570.00 765.75 C570.00,777.28 571.62,781.56 577.00,784.25 C581.34,786.42 584.21,786.46 588.16,784.41 ZM 637.29 784.75 C639.90,782.81 638.44,779.00 635.08,779.00 C630.95,779.00 630.00,777.27 630.00,769.80 L 630.00 763.00 L 633.50 763.00 C636.72,763.00 637.00,762.76 637.00,760.00 C637.00,757.24 636.72,757.00 633.50,757.00 C630.08,757.00 630.00,756.91 630.00,752.94 L 630.00 748.89 L 625.75 749.19 C621.62,749.49 621.49,749.61 621.19,753.25 C620.95,756.19 620.46,757.00 618.94,757.00 C617.45,757.00 617.00,757.70 617.00,760.00 C617.00,762.33 617.44,763.00 619.00,763.00 C620.77,763.00 621.01,763.71 621.12,769.25 C621.18,772.69 621.52,776.83 621.87,778.46 C623.08,784.11 632.83,788.08 637.29,784.75 ZM 672.10 784.99 C676.44,783.78 678.77,781.40 679.58,777.35 C680.55,772.49 676.95,769.21 669.17,767.86 C662.79,766.75 660.32,764.72 663.10,762.87 C664.62,761.86 671.46,762.20 674.18,763.41 C675.44,763.97 676.27,763.38 677.46,761.07 C679.03,758.03 679.02,757.96 676.47,756.99 C672.53,755.49 662.30,755.80 658.98,757.51 C650.19,762.06 653.28,772.17 663.89,773.58 C670.01,774.39 673.09,776.27 671.29,778.09 C669.76,779.65 661.93,779.57 658.94,777.97 C657.01,776.93 656.45,777.03 655.33,778.56 C654.18,780.13 653.50,782.97 654.25,783.02 C654.39,783.02 656.30,783.68 658.50,784.47 C663.27,786.19 667.23,786.34 672.10,784.99 ZM 528.29 775.89 C528.97,765.44 530.35,763.00 535.60,763.00 C540.68,763.00 542.00,765.75 542.00,776.28 L 542.00 785.11 L 546.25 784.81 L 550.50 784.50 L 550.83 779.50 C551.41,770.60 550.05,762.17 547.57,759.28 C544.58,755.81 534.79,754.78 530.63,757.50 C528.25,759.06 528.00,759.07 528.00,757.61 C528.00,756.40 527.02,756.00 524.00,756.00 L 520.00 756.00 L 520.00 770.50 L 520.00 785.00 L 523.85 785.00 L 527.70 785.00 L 528.29 775.89 ZM 274.79 719.74 C275.07,712.43 275.13,712.28 279.57,707.93 L 284.07 703.52 L 286.42 706.51 C287.71,708.15 291.89,713.33 295.69,718.00 L 302.61 726.50 L 309.55 727.07 C313.37,727.38 316.82,727.37 317.22,727.05 C317.94,726.46 314.94,722.37 300.77,704.71 L 292.92 694.92 L 296.71 690.55 C298.79,688.15 304.26,682.09 308.86,677.09 L 317.22 668.00 L 309.86 667.97 L 302.50 667.95 L 288.79 682.22 L 275.09 696.50 L 275.04 682.25 L 275.00 668.00 L 268.50 668.00 L 262.00 668.00 L 262.00 697.33 C262.00,713.47 262.26,726.93 262.58,727.25 C262.90,727.57 265.71,727.67 268.83,727.48 L 274.50 727.14 L 274.79 719.74 ZM 366.59 726.53 C371.95,724.94 377.43,720.04 380.63,714.00 C382.23,710.98 382.53,707.58 382.83,689.25 L 383.17 668.00 L 376.59 668.00 L 370.00 668.00 L 369.98 686.75 C369.95,708.16 368.90,712.45 362.92,715.54 C357.80,718.19 349.67,717.13 345.86,713.32 C341.74,709.21 341.05,705.19 341.02,685.25 L 341.00 668.00 L 334.41 668.00 L 327.83 668.00 L 328.18 689.25 C328.49,708.75 328.70,710.84 330.69,714.57 C333.38,719.62 340.04,725.75 343.72,726.56 C345.25,726.90 346.95,727.33 347.50,727.51 C350.28,728.44 362.24,727.82 366.59,726.53 ZM 413.50 709.75 C413.50,699.99 413.73,692.01 414.00,692.03 C414.27,692.04 418.38,698.46 423.13,706.28 C430.96,719.18 432.04,720.53 434.83,720.81 C437.59,721.09 438.17,720.63 440.49,716.31 C441.92,713.66 444.87,708.58 447.05,705.00 C449.23,701.42 451.77,697.04 452.69,695.25 C453.62,693.46 454.74,692.00 455.19,692.00 C455.63,692.00 456.00,700.12 456.00,710.05 L 456.00 728.10 L 461.75 727.80 L 467.50 727.50 L 467.76 697.75 L 468.03 668.00 L 462.26 668.04 L 456.50 668.07 L 446.11 686.54 C440.40,696.69 435.40,705.00 435.00,705.00 C434.60,705.00 432.87,702.41 431.15,699.25 C429.42,696.09 424.72,687.88 420.69,681.00 L 413.37 668.50 L 407.19 668.20 L 401.00 667.90 L 401.00 697.29 C401.00,713.45 401.32,726.99 401.71,727.38 C402.10,727.77 404.91,727.96 407.96,727.79 L 413.50 727.50 L 413.50 709.75 ZM 497.77 721.30 L 500.31 715.11 L 505.60 714.44 C508.51,714.08 515.01,714.17 520.04,714.64 L 529.19 715.50 L 531.34 720.50 C532.53,723.25 533.86,726.07 534.31,726.75 C535.21,728.14 546.56,728.53 547.38,727.20 C547.65,726.76 545.24,720.57 542.03,713.45 C538.81,706.33 533.02,693.30 529.15,684.50 L 522.11 668.50 L 515.06 668.21 L 508.02 667.91 L 506.03 672.21 C504.94,674.57 501.27,682.80 497.88,690.50 C494.49,698.20 489.53,709.38 486.86,715.35 C484.19,721.32 482.22,726.55 482.49,726.98 C482.75,727.41 485.73,727.70 489.10,727.63 L 495.23 727.50 L 497.77 721.30 ZM 572.79 719.25 L 573.08 711.00 L 580.40 711.00 L 587.73 711.00 L 590.59 715.25 C592.17,717.59 594.97,721.40 596.83,723.72 L 600.20 727.95 L 606.35 727.33 C609.73,727.00 612.64,726.60 612.82,726.46 C612.99,726.32 610.18,722.22 606.57,717.35 C602.97,712.48 600.01,708.19 600.01,707.82 C600.00,707.44 600.87,706.86 601.94,706.52 C605.04,705.53 609.82,699.39 611.06,694.77 C612.70,688.69 611.71,682.47 608.36,677.73 C602.99,670.13 595.44,668.00 573.86,668.00 L 560.00 668.00 L 560.00 697.33 C560.00,713.47 560.32,726.99 560.71,727.38 C561.10,727.77 563.91,727.96 566.96,727.79 L 572.50 727.50 L 572.79 719.25 ZM 639.61 726.25 C639.91,725.29 641.08,722.41 642.20,719.85 C644.66,714.26 645.53,714.00 661.50,714.00 L 672.75 714.00 L 674.91 719.25 C678.35,727.62 678.18,727.47 684.50,727.80 C687.68,727.97 690.69,727.71 691.18,727.22 C691.70,726.70 691.05,724.29 689.61,721.41 C688.25,718.71 682.32,705.59 676.43,692.25 L 665.71 668.00 L 658.48 668.00 C651.25,668.00 651.24,668.00 649.95,671.25 C649.23,673.04 643.56,686.06 637.33,700.19 C631.10,714.32 626.00,726.36 626.00,726.94 C626.00,727.58 628.60,728.00 632.53,728.00 C637.88,728.00 639.16,727.68 639.61,726.25 ZM 718.00 710.00 C718.00,700.10 718.36,692.00 718.81,692.00 C719.25,692.00 725.51,699.09 732.71,707.75 C750.70,729.39 749.35,728.16 754.64,727.80 L 759.10 727.50 L 759.30 697.75 L 759.50 668.00 L 753.25 668.00 L 747.00 668.00 L 747.00 686.00 C747.00,695.90 746.66,703.98 746.25,703.96 C745.84,703.94 739.97,697.08 733.21,688.71 C715.02,666.21 716.98,668.00 710.60,668.00 L 705.11 668.00 L 705.03 697.31 C704.99,713.43 705.26,726.93 705.64,727.31 C706.02,727.69 708.96,728.00 712.17,728.00 L 718.00 728.00 L 718.00 710.00 ZM 507.77 636.50 C532.33,633.01 551.60,625.61 573.50,611.25 C586.21,602.92 605.07,584.28 614.22,571.00 C642.29,530.25 651.48,476.00 638.87,425.50 C634.61,408.43 622.79,380.14 613.88,365.65 C612.23,362.97 611.09,360.58 611.33,360.33 C611.58,360.09 615.31,361.04 619.61,362.44 C623.92,363.85 628.20,365.00 629.13,365.00 C631.29,365.00 651.00,374.83 651.00,375.91 C651.00,376.35 653.81,378.43 657.25,380.53 C672.21,389.64 690.44,405.67 703.29,421.00 C707.68,426.23 711.65,430.65 712.13,430.83 C712.61,431.02 713.00,431.60 713.00,432.12 C713.00,433.36 717.16,439.00 718.07,439.00 C720.51,439.00 718.24,424.12 713.34,408.00 C710.66,399.19 703.59,384.67 698.08,376.71 C692.70,368.93 681.86,357.88 676.00,354.22 C672.64,352.12 672.60,352.03 675.00,351.91 C679.08,351.70 682.47,352.15 683.00,352.98 C683.50,353.74 698.65,358.03 702.50,358.49 C706.14,358.93 710.00,360.21 710.00,360.97 C710.00,361.39 712.14,362.53 714.75,363.51 C717.36,364.49 723.88,367.48 729.23,370.15 C734.58,372.82 739.65,375.00 740.48,375.00 C741.32,375.00 742.00,375.37 742.00,375.83 C742.00,376.28 746.25,379.47 751.45,382.92 C756.65,386.36 761.43,389.82 762.08,390.59 C762.72,391.37 763.64,392.00 764.12,392.00 C769.05,392.00 751.05,362.84 736.45,347.18 C717.82,327.19 695.82,315.68 669.08,311.91 C659.59,310.57 644.79,311.24 635.51,313.43 C632.21,314.21 629.38,314.71 629.21,314.55 C629.05,314.38 631.74,312.00 635.21,309.26 C657.09,291.92 686.06,277.79 711.62,271.99 C720.32,270.01 735.45,268.14 746.00,267.73 C750.56,267.55 751.90,267.22 750.50,266.64 C749.40,266.19 745.06,264.30 740.85,262.44 C736.65,260.58 729.09,257.69 724.07,256.02 C679.64,241.26 634.08,252.43 603.01,285.70 C599.09,289.89 595.55,292.90 595.11,292.40 C594.67,291.91 591.81,288.12 588.75,284.00 C571.25,260.44 545.61,243.83 518.50,238.51 C504.45,235.74 486.05,237.07 470.38,241.97 C463.77,244.04 451.00,250.26 451.00,251.41 C451.00,252.03 453.32,252.60 456.43,252.73 C463.73,253.05 480.22,255.76 480.93,256.76 C481.61,257.72 494.96,261.69 500.25,262.51 C502.31,262.83 504.00,263.44 504.00,263.86 C504.00,264.96 510.68,268.00 513.08,268.00 C515.31,268.00 520.62,270.49 521.16,271.78 C521.35,272.23 524.65,274.31 528.50,276.40 C534.17,279.49 554.28,292.11 555.92,293.62 C556.15,293.83 556.10,294.23 555.82,294.51 C555.54,294.80 553.31,293.92 550.88,292.56 C548.44,291.19 541.06,288.69 534.48,286.98 C518.87,282.94 503.13,282.06 487.72,284.38 C481.79,285.27 473.47,286.00 469.22,286.00 C441.44,286.02 402.80,299.47 375.02,318.80 C366.55,324.68 347.56,342.38 340.99,350.50 C325.94,369.11 314.44,392.51 308.87,415.85 C307.77,420.45 307.06,424.39 307.28,424.62 C307.51,424.84 309.67,424.30 312.09,423.42 C314.52,422.53 320.33,421.58 325.00,421.30 C333.93,420.76 342.46,422.41 353.50,426.82 C356.25,427.92 361.98,430.19 366.23,431.87 C378.41,436.70 393.55,439.94 420.50,443.50 C436.70,445.64 449.28,448.14 448.30,449.01 C447.07,450.12 365.86,453.33 315.00,454.28 L 303.50 454.50 L 303.75 467.00 C304.87,522.19 337.25,577.85 385.69,607.86 C406.49,620.75 416.50,624.87 446.00,632.72 C465.08,637.80 488.54,639.24 507.77,636.50 ZM 536.92 635.36 C537.15,635.16 537.09,634.76 536.80,634.47 C535.97,633.63 528.00,635.15 528.00,636.14 C528.00,636.93 535.90,636.24 536.92,635.36 ZM 566.50 627.25 C593.46,617.92 611.98,606.24 630.53,586.88 C646.04,570.69 657.47,552.25 665.78,530.00 C674.21,507.47 677.36,488.41 677.37,460.00 C677.38,438.17 676.55,431.32 671.23,409.25 C668.80,399.14 668.30,398.00 666.32,398.00 C665.11,398.00 663.90,398.35 663.64,398.77 C663.38,399.19 664.21,403.14 665.48,407.53 C666.76,411.93 668.72,421.15 669.85,428.01 C675.31,461.22 673.06,491.46 662.90,521.47 C647.91,565.73 620.61,596.96 577.81,618.79 C567.71,623.95 550.23,630.74 542.75,632.42 C541.24,632.76 540.00,633.43 540.00,633.92 C540.00,635.28 552.11,632.23 566.50,627.25 ZM 678.93 109.37 C681.94,105.53 681.53,102.68 677.47,99.10 C673.35,95.49 673.73,95.57 669.98,97.51 C664.91,100.13 663.56,105.14 666.75,109.53 C669.34,113.09 676.07,113.00 678.93,109.37 ZM 390.45 776.55 C385.26,771.35 388.37,763.00 395.50,763.00 C400.12,763.00 403.00,765.90 403.00,770.55 C403.00,774.85 399.32,779.00 395.50,779.00 C394.08,779.00 391.80,777.90 390.45,776.55 ZM 481.80 775.95 C479.16,773.32 478.83,772.41 479.35,769.21 C480.09,764.69 482.20,763.00 487.12,763.00 C494.64,763.00 497.34,771.56 491.45,776.75 C487.99,779.79 485.43,779.58 481.80,775.95 ZM 505.01 704.25 C505.02,702.49 513.73,682.59 514.61,682.30 C515.67,681.94 524.99,703.04 524.31,704.25 C524.07,704.66 519.63,705.00 514.44,705.00 C509.25,705.00 505.00,704.66 505.01,704.25 ZM 573.75 700.44 C573.34,700.01 573.00,694.97 573.00,689.24 L 573.00 678.81 L 582.92 679.16 C591.77,679.46 593.12,679.76 595.41,681.91 C600.28,686.49 599.44,694.72 593.73,698.43 C591.27,700.02 574.94,701.67 573.75,700.44 ZM 649.00 704.25 C649.00,702.23 657.63,682.05 658.50,682.03 C659.52,682.02 668.04,701.47 668.02,703.75 C668.00,704.66 665.43,705.00 658.50,705.00 C653.28,705.00 649.00,704.66 649.00,704.25 ZM 421.60 600.01 C410.75,596.54 402.28,589.18 397.68,579.21 C394.49,572.31 394.60,556.12 397.90,547.14 C406.49,523.74 427.34,502.42 453.26,490.54 C472.64,481.66 496.23,480.38 509.96,487.48 C518.89,492.10 525.28,501.06 527.64,512.28 C534.16,543.31 505.87,582.04 465.75,596.98 C451.77,602.19 432.55,603.51 421.60,600.01 Z" fill="rgb(252,253,245)"/>
</g>
</svg>